<svg class="svg-icon" style="width: 1em; height: 1em;vertical-align: middle;fill: currentColor;overflow: hidden;" viewBox="0 0 1024 1024" version="1.1" xmlns="http://www.w3.org/2000/svg"><path d="M832 1024H192a192 192 0 0 1-192-192V192a192 192 0 0 1 192-192h640c105.984 0 192 85.952 192 192v640c0 106.048-86.016 192-192 192z m64-832c0-35.392-28.608-64-64-64H192a64 64 0 0 0-64 64v640a64 64 0 0 0 64 64h640c35.392 0 64-28.608 64-64V192z m-203.008 500.992a63.936 63.936 0 0 1-90.496 0L512 602.496l-90.496 90.496a64 64 0 1 1-90.56-90.496L421.504 512l-90.56-90.496a64 64 0 1 1 90.56-90.496L512 421.504l90.496-90.496c25.024-25.024 65.472-25.024 90.496 0s25.024 65.472 0 90.496L602.496 512l90.496 90.496a63.936 63.936 0 0 1 0 90.496z"  /></svg>